# xmcd CD database file
#
# Track frame offsets:
#	150
#	9117
#	29230
#	48950
#	62854
#	75587
#	93048
#	105382
#	117159
#	130039
#	143297
#	158902
#	169387
#	182073
#	193942
#	205765
#	216391
#	229771
#	242348
#	261560
#
# Disc length: 3738 seconds
#
# Revision: 1
# Processed by: cddbd v1.5.2PL0 Copyright (c) Steve Scherf et al.
# Submitted via: CDex 1.79
#
DISCID=0d0e9814
DTITLE=Spirit Of Jazz Divas - CD4
DYEAR=2012
DGENRE=Jazz
TTITLE0=Rosemary Clooney - Come On-a My House
TTITLE1=Diana Krall - This Can't Be Love
TTITLE2=Billie Holiday - Come Rain Or Come Shine
TTITLE3=Dinah Shore - Mood Indigo
TTITLE4=Lena Horne - Honeysuckle Rose Room
TTITLE5=Mahalia Jackson - When The Saints Go Marchin' In
TTITLE6=Brook Benton and Dinah Washington - Baby You Got What It Takes
TTITLE7=Dinah Washington - New Blowtop Blues
TTITLE8=Rosemary Clooney - You Make Me Feel So Young
TTITLE9=Lavern Baker - You'll Be Crying
TTITLE10=Sarah Vaughan - Stormy Weather
TTITLE11=Marilyn Monroe - A Fine Romance
TTITLE12=Billie Holiday - Them There Eyes
TTITLE13=Betty Carter - I Could Write A Book
TTITLE14=Carmen Mc Rae - Just One Of Those Things
TTITLE15=Eartha Kitt - Nobody Taught Me
TTITLE16=Dinah Washington - Mad About The Boy
TTITLE17=Etta Jones - I Sold My Heart To The Junkman
TTITLE18=Laika Fatien - Zigaboogaloo
TTITLE19=Ella Fitzgerald and Louis Armstrong - Let's Call The Whole Thing Off
EXTD=YEAR: 2012
EXTT0=
EXTT1=
EXTT2=
EXTT3=
EXTT4=
EXTT5=
EXTT6=
EXTT7=
EXTT8=
EXTT9=
EXTT10=
EXTT11=
EXTT12=
EXTT13=
EXTT14=
EXTT15=
EXTT16=
EXTT17=
EXTT18=
EXTT19=
PLAYORDER=
